<svg width="90" height="24" viewBox="0 0 90 24" fill="none" xmlns="http://www.w3.org/2000/svg"><path d="M80.131 0h9.17v24h-9.17c-2.561 0-4.747-.49-6.556-1.467-1.808-.978-3.174-2.365-4.095-4.163-.921-1.798-1.382-3.921-1.382-6.37 0-2.45.46-4.573 1.382-6.371.921-1.797 2.287-3.185 4.095-4.163C75.385.489 77.57 0 80.131 0zm.068 20.09h4.55V3.91H80.2c-2.359 0-4.18.69-5.46 2.073-1.28 1.382-1.922 3.388-1.922 6.017 0 2.63.64 4.634 1.922 6.017 1.28 1.381 3.1 2.072 5.46 2.072zM58.24 18.37c.92-1.797 1.381-3.92 1.381-6.37 0-2.63.64-4.635 1.921-6.017 1.28-1.382 3.102-2.073 5.46-2.073h.86V0h-.926c-2.563 0-4.748.489-6.557 1.466-1.808.978-3.173 2.365-4.095 4.164-.921 1.797-1.381 3.92-1.381 6.37 0 2.63-.64 4.634-1.922 6.017-1.28 1.381-3.1 2.073-5.46 2.073h-.86V24h.927c2.562 0 4.747-.489 6.556-1.466 1.809-.978 3.174-2.366 4.096-4.164zM35.242 0h9.169v24h-9.17c-2.561 0-4.746-.49-6.555-1.467-1.809-.978-3.174-2.365-4.096-4.163-.92-1.798-1.382-3.921-1.382-6.37 0-2.45.461-4.573 1.383-6.371.92-1.797 2.286-3.185 4.095-4.163C30.495.489 32.68 0 35.242 0zm.067 20.09h4.55V3.91h-4.55c-2.36 0-4.18.69-5.46 2.073-1.281 1.382-1.922 3.388-1.922 6.017 0 2.63.64 4.634 1.922 6.017 1.28 1.381 3.1 2.072 5.46 2.072zM15.724 1.466c1.808.978 3.174 2.366 4.095 4.164.922 1.798 1.383 3.921 1.383 6.37 0 2.45-.461 4.573-1.383 6.37-.921 1.798-2.287 3.186-4.095 4.163C13.915 23.512 11.73 24 9.168 24H0V0h9.169c2.561 0 4.746.489 6.555 1.466zm-1.163 16.55c1.281-1.382 1.922-3.387 1.922-6.017 0-2.629-.64-4.634-1.922-6.016-1.28-1.382-3.101-2.074-5.46-2.074H4.55v16.18H9.1c2.36 0 4.18-.69 5.46-2.073z" fill="#000F40"></path></svg>